# xmcd
# 
# Track frame offsets:
#     150
#     19895
#     36988
#     53818
#     72818
#     101589
#     113656
#     127806
#     147893
#     166334
#     189719
#     203032
#     215761
# 
# Disc length: 3115
# 
# Revision: 1
# Processed by: cddbd v1.5.2PL0 Copyright (c) Steve Scherf et al.
# Submitted via: fre:ac v1.0.31
# 
DISCID=ba0c290d
DTITLE=Adrien Moignard - All The Way
DYEAR=2010
DGENRE=Jazz
TTITLE0=All the way
TTITLE1=Intention chient méchant
TTITLE2=La valse d'augustine
TTITLE3=How high the moon
TTITLE4=Peniscola
TTITLE5=No smoking
TTITLE6=Viper's dream
TTITLE7=Witchcraft
TTITLE8=Blue in green
TTITLE9=Some skunk funk
TTITLE10=That's why they call me shine
TTITLE11=Clockwise
TTITLE12=Fountain of you
EXTD=
EXTT0=
EXTT1=
EXTT2=
EXTT3=
EXTT4=
EXTT5=
EXTT6=
EXTT7=
EXTT8=
EXTT9=
EXTT10=
EXTT11=
EXTT12=
PLAYORDER=
